<svg xmlns="http://www.w3.org/2000/svg" data-name="Layer 1" viewBox="0 0 512 512"><path fill="#00efd1" d="M436.06,80.47A74.589,74.589,0,0,1,331.6,186.96c-.35-.33-.69-.66-1.03-1l-20.63-20.63c-.8-.8-1.58-1.62-2.33-2.45A74.588,74.588,0,0,1,415.43,59.84ZM411.91,161.8a40.465,40.465,0,0,0-.01-57.17L391.27,84a40.425,40.425,0,1,0-57.17,57.17l20.63,20.63A40.477,40.477,0,0,0,411.91,161.8Z"/><path fill="#00acea" d="M331.6,186.96l-.01.01-91.93,91.92,36.07,36.07-17.68,17.67-36.06-36.06-10.61,10.61,26.87,26.87-17.68,17.68L193.7,324.86l-10.61,10.6,36.77,36.77-17.67,17.68L141.38,329.1,307.55,162.93l.06-.05c.75.83,1.53,1.65,2.33,2.45l20.63,20.63C330.91,186.3,331.25,186.63,331.6,186.96Z"/><path fill="#083863" d="M350.486,166.041a46.425,46.425,0,0,0,65.657-65.654L395.514,79.673A46.179,46.179,0,0,0,362.686,66h-.006C350.269,66,339,70.993,330,79.748h0a45.225,45.225,0,0,0-13.652,32.834,46.063,46.063,0,0,0,13.545,32.83ZM338.344,88.146A34.263,34.263,0,0,1,362.68,78h0a34.26,34.26,0,0,1,24.343,10.157l20.632,20.674a34.235,34.235,0,0,1,10.07,24.363A34.7,34.7,0,0,1,383.316,168h0a34.352,34.352,0,0,1-24.339-10.255L338.341,137.02a34.694,34.694,0,0,1,0-48.874Z"/><path fill="#083863" d="M137.137 333.343l60.81 60.81a6 6 0 0 0 8.487 0l17.67-17.68a6 6 0 0 0 0-8.484l-32.526-32.525 2.121-2.119 22.629 22.63a6 6 0 0 0 8.485 0l17.681-17.681a6 6 0 0 0 0-8.485L219.865 307.18l2.125-2.125 31.817 31.818a6 6 0 0 0 8.484 0l17.68-17.67a6 6 0 0 0 0-8.487L248.146 278.89l83.7-83.691a80.044 80.044 0 0 0 51.459 18.572q.368 0 .736 0A80.59 80.59 0 0 0 440.3 76.228L419.673 55.6A80.58 80.58 0 0 0 299.465 162.529L137.137 324.857A6 6 0 0 0 137.137 333.343zM314.183 64.083a68.669 68.669 0 0 1 97.005 0l20.63 20.63a68.674 68.674 0 0 1 0 97c-26.241 26.242-69.332 26.656-96.1.877-.308-.29-.607-.581-.9-.877l-20.628-20.628c-.733-.734-1.448-1.485-2.122-2.232l-.024-.025A68.449 68.449 0 0 1 314.183 64.083zM307.545 171.42L323.1 186.975l-87.682 87.672a6 6 0 0 0 0 8.486l31.827 31.826-9.193 9.187-31.818-31.819a6 6 0 0 0-8.485 0l-10.611 10.611a6 6 0 0 0 0 8.485l22.628 22.627-9.195 9.195-22.627-22.628a6 6 0 0 0-8.484 0l-10.61 10.6a6 6 0 0 0 0 8.488l32.529 32.528-9.187 9.193L149.865 329.1zM137.138 375.767l-36.07 36.06a6 6 0 1 0 8.484 8.486l36.07-36.06a6 6 0 0 0-8.484-8.486zM108.143 218.087a6 6 0 1 0-8.486 8.486l36.06 36.06a6 6 0 0 0 8.486-8.486zM266.537 384.958a6 6 0 0 0 0 8.485L302.6 429.5a6 6 0 1 0 8.486-8.485l-36.061-36.059A6 6 0 0 0 266.537 384.958zM48 325a6 6 0 0 0 6 6h51a6 6 0 0 0 0-12H54A6 6 0 0 0 48 325z"/><path fill="#083863" d="M357 325a6 6 0 0 0-6-6H300a6 6 0 0 0 0 12h51A6 6 0 0 0 357 325zM209 228V177a6 6 0 0 0-12 0v51a6 6 0 0 0 12 0zM197 423v51a6 6 0 0 0 12 0V423a6 6 0 0 0-12 0z"/></svg>